<svg xmlns="http://www.w3.org/2000/svg" viewBox="0 0 24 24" fill="#555555"><path d="M12 .5C5.7.5.5 5.7.5 12a11.5 11.5 0 0 0 7.9 10.9c.6.1.8-.2.8-.5v-1.8c-3.2.7-3.9-1.5-3.9-1.5-.5-1.3-1.3-1.7-1.3-1.7-1.1-.7.1-.7.1-.7 1.2.1 1.8 1.2 1.8 1.2 1 1.8 2.7 1.3 3.4 1 .1-.8.4-1.3.7-1.6-2.6-.3-5.3-1.3-5.3-5.8 0-1.3.4-2.3 1.2-3.1-.1-.3-.5-1.5.1-3.1 0 0 1-.3 3.3 1.2a11.4 11.4 0 0 1 6 0C17 5 18 5.3 18 5.3c.6 1.6.2 2.8.1 3.1.8.8 1.2 1.8 1.2 3.1 0 4.5-2.7 5.5-5.3 5.8.4.4.8 1.1.8 2.2v3.3c0 .3.2.6.8.5A11.5 11.5 0 0 0 23.5 12C23.5 5.7 18.3.5 12 .5z"/></svg>
